<?xml version="1.0" encoding="UTF-8" standalone="no"?>
<!-- Created with Inkscape (http://www.inkscape.org/) -->

<svg
   width="111.58738"
   height="165.44176"
   viewBox="0 0 63.764216 94.538145"
   version="1.1"
   id="svg1"
   xml:space="preserve"
   sodipodi:docname="powered_by_org_mode.svg"
   inkscape:version="1.3.2 (091e20e, 2023-11-25, custom)"
   xmlns:inkscape="http://www.inkscape.org/namespaces/inkscape"
   xmlns:sodipodi="http://sodipodi.sourceforge.net/DTD/sodipodi-0.dtd"
   xmlns:xlink="http://www.w3.org/1999/xlink"
   xmlns="http://www.w3.org/2000/svg"
   xmlns:svg="http://www.w3.org/2000/svg"
   xmlns:rdf="http://www.w3.org/1999/02/22-rdf-syntax-ns#"
   xmlns:cc="http://creativecommons.org/ns#"><sodipodi:namedview
     id="namedview1"
     pagecolor="#505050"
     bordercolor="#ffffff"
     borderopacity="1"
     inkscape:showpageshadow="0"
     inkscape:pageopacity="0"
     inkscape:pagecheckerboard="1"
     inkscape:deskcolor="#505050"
     inkscape:document-units="mm"
     inkscape:zoom="3.0729661"
     inkscape:cx="44.907751"
     inkscape:cy="84.120679"
     inkscape:window-width="1292"
     inkscape:window-height="745"
     inkscape:window-x="66"
     inkscape:window-y="-8"
     inkscape:window-maximized="1"
     inkscape:current-layer="layer1" /><defs
     id="defs1"><rect
       x="272.34009"
       y="544.68018"
       width="240.93987"
       height="76.984222"
       id="rect2" /><linearGradient
       id="linearGradient1"><stop
         style="stop-color:#587e72;stop-opacity:1;"
         offset="0"
         id="stop2" /><stop
         style="stop-color:#587e72;stop-opacity:0.99215686;"
         offset="1"
         id="stop1" /></linearGradient><rect
       x="515.21393"
       y="591.28583"
       width="82.189529"
       height="20.746872"
       id="rect1" /><linearGradient
       id="swatch7"><stop
         style="stop-color:#000000;stop-opacity:1;"
         offset="0"
         id="stop7" /></linearGradient><linearGradient
       id="linearGradient4292"><stop
         id="stop4294"
         offset="0"
         style="stop-color:#411f5d;stop-opacity:1" /><stop
         id="stop4296"
         offset="1"
         style="stop-color:#5b2a85;stop-opacity:1" /></linearGradient><linearGradient
       id="linearGradient4284"><stop
         offset="0"
         style="stop-color:#8381c5;stop-opacity:1"
         id="stop4286" /><stop
         id="stop4290"
         style="stop-color:#7e55b3;stop-opacity:0.99607843"
         offset="0.56639391" /><stop
         offset="1"
         style="stop-color:#a52ecb;stop-opacity:0.99215686"
         id="stop4288" /></linearGradient><linearGradient
       y2="300.73987"
       x2="236.61363"
       y1="-161.8512"
       x1="-122.20192"
       spreadMethod="pad"
       gradientTransform="matrix(0.08192422,0,0,0.07764193,223.12164,515.26127)"
       gradientUnits="userSpaceOnUse"
       id="linearGradient4245"
       xlink:href="#linearGradient4284" /><linearGradient
       y2="66.018341"
       x2="173.94518"
       y1="396.6066"
       x1="447.80933"
       gradientTransform="matrix(0.09251715,0,0,0.09251715,200.34291,492.03412)"
       gradientUnits="userSpaceOnUse"
       id="linearGradient4247"
       xlink:href="#linearGradient4292" /><linearGradient
       xlink:href="#linearGradient1"
       id="linearGradient2"
       x1="65.512505"
       y1="119.42089"
       x2="129.27672"
       y2="119.42089"
       gradientUnits="userSpaceOnUse" /><rect
       x="272.34009"
       y="544.68018"
       width="51.533951"
       height="22.193455"
       id="rect2-7" /></defs><g
     id="layer1"
     transform="translate(-65.512506,-72.151816)"><path
       style="fill:#ffffff;fill-rule:evenodd;stroke-width:0.531971;paint-order:fill markers stroke"
       d="m 365.58567,276.30284 c -17.2112,-0.008 -95.94986,1.73989 -114.86315,18.8268 -3.34418,60.07997 0.35292,154.64109 -0.4201,231.38058 -1.58691,9.27765 236.05212,11.7724 235.6201,-0.21423 -1.2771,-42.13618 -0.82388,-208.17082 -2.86061,-231.90756 -34.2709,-19.37121 -77.33199,-17.96847 -117.47624,-18.08559 z"
       id="BG"
       transform="scale(0.26458333)" /><path
       style="fill:url(#linearGradient2)"
       d="m 90.647926,166.55559 c -3.55237,-0.14418 -10.8821,-0.89043 -13.87562,-1.41268 -5.63961,-0.98389 -9.66725,-2.46449 -10.71792,-3.94003 -0.54051,-0.75908 -0.54188,-0.86434 -0.54188,-41.77642 V 78.411047 l 0.64002,-0.76062 c 2.23129,-2.65174 10.14035,-4.361087 24.26945,-5.245247 6.85526,-0.428984 11.403474,-0.331204 20.069704,0.4315 10.06037,0.88539 17.08105,2.924587 18.44531,5.357547 0.2481,0.44245 0.32349,9.87164 0.33073,41.364773 l 0.009,40.79168 -0.69592,0.82706 c -3.16025,3.75574 -19.79492,6.11406 -37.933244,5.37785 z m -22.65036,-28.26217 c 1.40236,-0.58594 6.31854,-1.37111 11.85624,-1.89358 6.04901,-0.5707 27.615824,-0.66081 33.283704,-0.13906 7.35031,0.67663 12.20228,1.45683 14.35365,2.30807 0.43931,0.17383 0.46302,-1.33934 0.46302,-29.55185 0,-33.383983 0.19558,-30.401783 -2.06894,-31.547343 -6.93465,-3.508067 -27.523894,-5.025297 -43.350284,-3.19451 -7.81263,0.90376 -13.36416,2.40078 -15.10422,4.07298 l -0.59531,0.5721 v 29.887613 c 0,16.43818 0.045,29.88761 0.1,29.88761 0.055,0 0.53296,-0.18092 1.06216,-0.40203 z"
       id="path1" /><text
       xml:space="preserve"
       transform="matrix(0.26458333,0,0,0.26458333,-69.24933,-25.475871)"
       id="text1"
       style="font-style:italic;font-weight:600;font-size:13.3333px;font-family:'Fira Sans';-inkscape-font-specification:'Fira Sans Semi-Bold Italic';text-align:center;white-space:pre;shape-inside:url(#rect1);display:inline;fill:#ffffff;fill-rule:evenodd;paint-order:fill markers stroke"><tspan
         x="519.72968"
         y="603.34068"
         id="tspan5"><tspan
           style="font-style:normal;font-weight:normal;-inkscape-font-specification:'Fira Sans';fill:#000000"
           id="tspan3">Powered by:</tspan></tspan></text><text
       xml:space="preserve"
       transform="matrix(0.26458333,0,0,0.26458333,-5.8378856,-1.0398107)"
       id="text2"
       style="font-style:normal;font-variant:normal;font-weight:normal;font-stretch:normal;font-size:40.315px;font-family:Arial;-inkscape-font-specification:Arial;text-align:center;white-space:pre;shape-inside:url(#rect2);display:inline;fill:#ffffff;fill-rule:evenodd;paint-order:fill markers stroke"><tspan
         x="303.29015"
         y="581.13117"
         id="tspan11"><tspan
           style="font-weight:bold;font-family:'Fira Sans';-inkscape-font-specification:'Fira Sans Bold'"
           id="tspan8">Org</tspan><tspan
           style="font-family:'Fira Sans';-inkscape-font-specification:'Fira Sans'"
           id="tspan9"> </tspan><tspan
           style="font-weight:300;font-family:'Fira Sans';-inkscape-font-specification:'Fira Sans Light'"
           id="tspan10">mode</tspan></tspan></text><g
       id="g7"
       transform="matrix(0.31269496,0,0,0.31269496,75.202655,80.215054)"><path
         fill="#a04d32"
         stroke="#000000"
         stroke-width="3"
         d="m 141.044,59.449 c -0.205,-3.15 -2.842,-4.366 -5.993,-2.125 -7.219,-1.297 -14.305,-0.687 -17.8,-0.981 -7.662,-1.073 -14.041,-5.128 -14.041,-5.128 0.932,-1.239 0.486,-3.917 -5.498,-4.101 -1.646,-0.542 -3.336,-1.327 -4.933,-1.979 0.544,-1.145 -0.133,-2.836 -0.133,-2.836 2.435,-0.672 2.808,-3.842 1.848,-5.709 3.106,0.084 2.612,-4.718 2.183,-6.381 2.435,-0.923 2.771,-3.831 1.763,-6.129 2.938,-0.671 3.022,-4.114 2.771,-6.548 3.022,-0.168 2.603,-5.457 2.603,-6.549 2.604,-1.679 2.016,-3.946 2.425,-6.573 1.605,-3.25 -0.577,-4.173 -2.116,-0.71 -1.651,3.001 -3.769,4.311 -3.75,6.528 0.755,1.259 -5.625,3.106 -3.61,7.052 -1.428,1.763 -4.785,4.03 -3.592,6.733 -0.606,1.326 -4.888,4.433 -3.041,7.371 -4.029,2.687 -3.789,3.335 -2.938,5.793 -1.147,0.736 -2.318,1.862 -2.995,3.094 -1.319,-1.568 -2.603,-4.429 -2.584,-8.294 0,-3.275 -6.099,0.318 -6.099,6.784 0,0.556 -0.057,1.061 -0.135,1.542 -2.11,0.243 -4.751,0.707 -8.08,1.494 -0.106,0.073 -0.157,0.186 -0.182,0.316 C 66.986,41.628 66.886,41.112 66.84,40.56 66.258,36.77 61.906,31 59.783,38.126 c -1.096,2.611 -1.74,4.392 -2.115,5.789 v 0 c 0,0 -0.336,0.226 -0.957,0.61 -2.619,1.622 -3.562,6.686 -13.075,9.883 -3.211,1.079 -7.4,1.945 -12.959,2.395 -9.57,0.773 -27.888,17.314 -29.115,33.097 -0.283,3.964 0.31,13.737 3.596,22.31 0.002,0.006 0.003,0.014 0.005,0.02 0.015,0.042 0.032,0.081 0.048,0.122 0.052,0.134 0.103,0.267 0.156,0.398 0.28,0.718 0.579,1.405 0.895,2.062 1.885,4.028 4.46,7.59 7.934,9.882 1.764,1.376 3.342,2.258 4.372,2.762 5.907,9.749 18.442,22.252 42.075,14.859 36.255,-10.284 56.263,13.809 58.568,15.5 3.399,3.433 -8.786,-29.835 -34.587,-44.788 -15.253,-8.322 -5.678,-22.656 -4.585,-27.718 0,0 12.227,8.557 21.087,-4.52 8.004,2.062 13.367,-1.462 20.251,1.03 4.183,1.833 21.77,0.726 15.234,-9.104 4.11,-2.683 4.544,-1.815 6.6,-5.9 1.104,-4.952 -1.403,-6.012 -2.167,-7.366 z M 70.751,46.15 c -0.041,0.018 -0.086,0.04 -0.125,0.056 0.039,-0.034 0.075,-0.062 0.115,-0.102 0.003,0.014 0.007,0.032 0.01,0.046 z m -13.413,4.523 c -0.073,0.429 -0.143,0.829 -0.212,1.216 0.037,-0.832 0.085,-1.714 0.143,-2.646 0.024,0.435 0.05,0.904 0.069,1.43 z M 68.031,44.34 c 0.746,1.124 1.662,2.179 1.662,2.179 0,0 -0.875,-0.79 -1.662,-2.179 z"
         id="path1-6" /><path
         fill="#77aa99"
         stroke="#000000"
         stroke-width="0.5"
         d="m 14.093,117.635 c 0,0 10.021,36.105 46.549,24.68 36.255,-10.284 56.263,13.809 58.568,15.5 3.399,3.433 -8.786,-29.835 -34.587,-44.788 -15.253,-8.322 -5.678,-22.656 -4.585,-27.718 0,0 12.227,8.557 21.087,-4.52 8.004,2.062 13.367,-1.462 20.251,1.03 4.183,1.833 21.77,0.726 15.234,-9.104 4.11,-2.683 4.544,-1.815 6.6,-5.9 1.105,-4.952 -1.402,-6.011 -2.166,-7.366 -0.205,-3.15 -2.842,-4.366 -5.993,-2.125 -7.219,-1.297 -14.305,-0.687 -17.8,-0.981 -7.662,-1.073 -14.041,-5.128 -14.041,-5.128 0.932,-1.239 0.486,-3.917 -5.498,-4.101 -3.287,-1.082 -6.752,-3.136 -9.288,-3.162 -2.567,0 -2.914,-2.537 -2.914,-2.537 -1.606,-0.87 -3.924,-4.252 -3.899,-9.438 0,-3.275 -6.099,0.318 -6.099,6.784 0,6.466 -5.818,7.758 -5.818,7.758 0,0 -2.549,-2.281 -2.855,-5.958 -0.582,-3.79 -4.934,-9.56 -7.057,-2.434 -3.226,7.646 -3.485,9.43 -4.115,13.154 -1.31,7.711 -0.345,8.012 -0.345,8.012 l -32.824,23.43 z"
         id="path2" /><path
         fill="#314b49"
         stroke="#314b49"
         stroke-width="0.75"
         stroke-linecap="round"
         stroke-linejoin="round"
         d="m 91.756,56.215 c 1.548,-0.562 0.896,-0.415 1.152,-0.581 -2.959,0.575 -9.635,0.614 -14.317,-1.133 0.392,0.23 2.568,0.962 2.845,1.128 0.218,0.715 0.1,1.438 2.932,2.709 2.559,0.793 5.845,0.461 6.835,-0.529 0.109,-1.684 0.126,-1.065 0.553,-1.594 z"
         id="path3" /><path
         fill="#314b49"
         stroke="#314b49"
         stroke-width="0.5"
         d="m 124.124,75.361 c -2.829,-2.085 -4.881,-0.264 -6.469,-0.413 0.99,-0.645 3.762,-2.062 8.245,-2.062 2.532,0 3.879,2.196 5.57,2.207 1.141,0.007 4.472,-1.71 5.14,-2.378 -0.969,0.838 0.454,1.755 -0.489,3.003 -0.282,0.359 -0.837,1.511 -2.663,2.051 -2.05,0.971 -5.411,1.762 -9.334,-2.408 z"
         id="path4" /><path
         fill="#314b49"
         d="m 62.577,37.415 c 0,0 -3.355,7.996 0.312,15.329 3.667,7.333 0.522,-6.829 4.688,-4.162 3.397,0.385 -2.387,-3.215 -2.033,-7.819 -0.176,-2.892 -1.77,-5.194 -2.967,-3.348 z"
         id="path5" /><path
         fill="#314b49"
         d="m 126.981,63.799 c 0,1.121 -1.363,2.03 -3.045,2.03 3.573,-1.121 -0.201,-4.653 -3.045,-2.03 0,-1.121 1.363,-2.03 3.045,-2.03 1.682,0 3.045,0.909 3.045,2.03 z"
         id="path6" /><path
         fill="#314b49"
         d="m 121.814,61.215 c 3.772,-0.231 6.336,0.323 5.536,3.138 0.548,-1.126 1.292,-2.83 -1.046,-3.507 -1.746,-0.388 -3.299,-0.378 -4.49,0.369 z"
         id="path7" /><path
         fill="#a04d32"
         stroke="#000000"
         stroke-width="0.5"
         d="m 67.574,82.616 c 0,-3.521 -1.509,-7.166 -7.04,-14.583 -1.635,-2.192 -2.62,-4.336 -3.211,-6.275 -1.401,-3.295 -3.426,-8.019 -0.613,-17.233 0,0 0.621,-0.384 0,0 -2.619,1.622 -3.562,6.686 -13.075,9.883 -3.211,1.079 -7.4,1.945 -12.959,2.395 C 21.107,57.576 2.789,74.117 1.562,89.9 c -0.283,3.964 0.31,13.737 3.596,22.31 0.002,0.006 0.003,0.014 0.005,0.02 0.015,0.042 0.032,0.081 0.048,0.122 0.052,0.134 0.103,0.267 0.156,0.398 0.28,0.718 0.579,1.405 0.895,2.062 1.885,4.028 4.46,7.59 7.934,9.882 3.084,2.404 5.606,3.306 5.606,3.306 -2.588,-3.578 -3.77,-7.562 -2.263,-12.32 0.651,2.637 1.903,4.162 3.646,4.777 -0.615,-1.884 -0.827,-3.549 0,-4.651 2.567,6.734 5.353,9.031 8.171,10.686 -2.631,-4.914 -4.032,-10.005 -3.771,-15.337 2.569,6.028 6.596,9.945 10.56,13.954 -3.78,-5.966 -6.911,-12.104 -6.977,-19.046 1.693,2.778 3.935,4.932 6.6,6.601 -1.683,-2.709 -2.505,-5.51 -2.263,-8.423 4.424,4.945 9.361,6.607 14.332,8.046 -5.197,-3.625 -9.843,-7.537 -12.32,-12.572 2.972,1.464 5.948,1.693 8.926,1.383 -3.706,-1.872 -5.069,-5.252 -5.783,-9.052 5.177,5.279 10.587,8.827 16.091,11.692 -5.456,-5.26 -9.479,-10.65 -11.566,-16.218 2.1,1.18 4.157,1.736 6.16,1.509 -2.766,-3.124 -3.465,-6.182 -4.211,-9.241 2.637,3.916 4.959,6.022 7.103,7.103 -2.189,-4.482 -2.034,-8.432 -0.503,-12.068 2.524,1.675 4.902,4.295 6.915,9.303 0.731,-2.386 -0.447,-6.364 -1.886,-10.56 2.175,0.622 4.779,3.351 8.171,9.932 -0.33,-3.865 -2.139,-7.775 -4.148,-11.692 3.027,3.51 7.557,12.713 6.788,10.81 z"
         id="path8" /><path
         fill="#796958"
         stroke="#000000"
         stroke-width="0.5"
         d="m 83.915,43.558 c 0,0 -0.252,7.472 6.717,2.603 3.61,0.084 2.015,-3.862 2.015,-3.862 2.435,-0.672 2.808,-3.842 1.848,-5.709 3.106,0.084 2.612,-4.718 2.183,-6.381 2.435,-0.923 2.771,-3.831 1.763,-6.129 2.938,-0.671 3.022,-4.114 2.771,-6.548 3.022,-0.168 2.603,-5.457 2.603,-6.549 2.604,-1.679 2.016,-3.946 2.425,-6.573 1.605,-3.25 -0.577,-4.173 -2.116,-0.71 -1.651,3.001 -3.769,4.311 -3.75,6.528 0.755,1.259 -5.625,3.106 -3.61,7.052 -1.428,1.763 -4.785,4.03 -3.592,6.733 -0.606,1.326 -4.888,4.433 -3.041,7.371 -4.029,2.687 -3.789,3.335 -2.938,5.793 -2.155,1.38 -4.409,4.131 -3.278,6.381 z"
         id="path9" /><path
         fill="#ffffff"
         d="m 101.739,8.295 c 0,0 -0.735,1.324 -0.735,2.133 0,0.809 2.185,0.568 2.927,-0.227 -1.625,0.024 -2.965,0.289 -2.192,-1.906 z"
         id="path10" /><path
         fill="#ffffff"
         d="m 97.478,14.565 c 0,0 -0.812,1.068 -0.183,2.316 0.392,0.98 2.807,0.962 3.549,0.167 -1.625,0.024 -4.14,-0.287 -3.366,-2.483 z"
         id="path11" /><path
         fill="#ffffff"
         d="m 94.343,21.02 c 0,0 -0.998,1.346 -0.492,2.602 0,0.809 2.838,0.956 3.58,0.161 -1.625,0.022 -3.645,-0.489 -3.088,-2.763 z"
         id="path12" /><path
         fill="#ffffff"
         d="m 91.266,28.182 c 0,0 -1.403,1.542 -0.149,2.945 1.438,0.809 3.744,0.049 4.486,-0.746 -1.625,0.022 -4.894,0.076 -4.337,-2.199 z"
         id="path13" /><path
         fill="#ffffff"
         d="m 88.261,33.903 c 0,0 -1.575,1.414 -0.02,3.312 1.438,0.809 4.57,0.198 5.312,-0.597 -1.624,0.024 -5.989,-1.346 -5.292,-2.715 z"
         id="path14" /><path
         fill="#ffffff"
         d="m 85.114,40.644 c 0,0 -1.403,1.542 -0.149,2.945 1.438,0.809 6.036,-0.186 6.778,-0.981 -1.625,0.023 -7.185,0.311 -6.629,-1.964 z"
         id="path15" /><path
         fill="#a04d32"
         stroke="#000000"
         stroke-width="0.5"
         d="m 83.997,43.672 c -0.45,-0.45 -0.534,-0.896 -0.367,-1.718 0,0 0.369,-4.107 -16.333,-0.158 -1.072,0.74 2.396,4.722 2.396,4.722 0,0 0.418,0.215 1.047,-0.415 0.253,1.123 0.852,4.081 0.233,4.579 1.245,-0.771 1.868,-1.946 1.676,-4.125 2.122,0.461 3.742,1.64 4.692,3.779 0.304,-1.4 0.603,-2.799 -0.384,-4.126 2.182,0.285 3.88,1.496 5.362,3.124 0.221,-0.933 0.354,-1.883 0,-2.931 1.391,0.473 2.587,1.607 3.71,2.988 0.001,0 0.211,-3.862 -2.032,-5.719 z"
         id="path16" /><path
         opacity="0.26"
         d="m 67.975,71.318 c 0,0 6.761,13.59 17.595,13.991 10.834,0.401 10.834,-2.73 10.834,-2.73 0,0 -15.527,3.048 -28.429,-11.261 z"
         id="path17" /><path
         opacity="0.26"
         d="m 71.13,79.012 c 2.279,3.104 4.856,5.221 7.722,6.382 0,0 -7.365,11.108 -3.611,20.023 3.754,8.915 13.125,11.053 23.321,21.249 7.942,7.942 17.158,24.961 17.158,24.961 0,0 -17.834,-14.176 -29.42,-13.479 0,0 -2.687,-9.668 -10.585,-17.566 C 64.471,109.337 59.547,94.707 71.13,79.012 Z"
         id="path18" /><path
         opacity="0.18"
         fill="#ffffff"
         d="M 52.362,51.627 C 48.488,54.128 43.943,58.723 27.947,59.71 10.898,66.494 0.514,86.395 4.17,100.174 c 1.348,7.317 3.891,14.18 3.891,14.18 -0.887,-5.919 -1.383,-11.397 1.033,-13.599 1.435,2.384 2.969,2.468 4.507,2.479 -1.59,-2.404 -1.788,-4.808 0,-7.212 1.489,1.525 2.992,1.881 4.507,1.353 -2.128,-2.449 -1.867,-4.848 0,-7.211 1.388,5.022 4.462,7.453 7.662,9.689 -2.208,-4.333 -4.166,-8.672 -2.93,-13.07 1.323,0.729 2.595,0.644 3.831,0 -1.257,-1.576 -0.925,-3.153 0,-4.732 2.947,3.04 6.213,3.724 9.465,4.507 -2.661,-2.454 -5.543,-4.527 -6.761,-9.465 1.501,-1.811 3.269,-2.685 5.408,-2.253 -1.901,-1.167 -1.65,-2.543 0,-4.057 2.089,1.104 4.195,1.352 6.31,1.127 -2.807,-1.68 -8.424,-4.994 11.269,-20.283 z"
         id="path19" /><path
         opacity="0.27"
         fill="#ffffff"
         d="m 78.923,32.771 c 0.996,-0.963 1.146,-0.65 0.854,0.285 -0.982,2.36 0.353,4.647 0.797,6.206 l -3.871,0.114 c 0.108,-2.271 0.247,-4.794 2.22,-6.605 z"
         id="path20" /></g></g><metadata
     id="metadata1"><rdf:RDF><cc:Work
         rdf:about=""><cc:license
           rdf:resource="https://www.gnu.org/licenses/gpl-3.0.en.html" /></cc:Work></rdf:RDF></metadata></svg>
