<?xml version="1.0" encoding="UTF-8" standalone="no"?>
<!-- Created with Inkscape (http://www.inkscape.org/) -->

<svg
   width="111.58738"
   height="165.44176"
   viewBox="0 0 63.764216 94.538145"
   version="1.1"
   id="svg1"
   xml:space="preserve"
   sodipodi:docname="powered_by_emacs.svg"
   inkscape:version="1.3.2 (091e20e, 2023-11-25, custom)"
   xmlns:inkscape="http://www.inkscape.org/namespaces/inkscape"
   xmlns:sodipodi="http://sodipodi.sourceforge.net/DTD/sodipodi-0.dtd"
   xmlns:xlink="http://www.w3.org/1999/xlink"
   xmlns="http://www.w3.org/2000/svg"
   xmlns:svg="http://www.w3.org/2000/svg"
   xmlns:rdf="http://www.w3.org/1999/02/22-rdf-syntax-ns#"
   xmlns:cc="http://creativecommons.org/ns#"><sodipodi:namedview
     id="namedview1"
     pagecolor="#505050"
     bordercolor="#ffffff"
     borderopacity="1"
     inkscape:showpageshadow="0"
     inkscape:pageopacity="0"
     inkscape:pagecheckerboard="1"
     inkscape:deskcolor="#505050"
     inkscape:document-units="mm"
     inkscape:zoom="2.1729152"
     inkscape:cx="29.913731"
     inkscape:cy="112.06144"
     inkscape:window-width="1292"
     inkscape:window-height="745"
     inkscape:window-x="66"
     inkscape:window-y="-8"
     inkscape:window-maximized="1"
     inkscape:current-layer="svg1" /><defs
     id="defs1"><rect
       x="272.34009"
       y="544.68018"
       width="190.33711"
       height="80.498306"
       id="rect2" /><linearGradient
       id="linearGradient1"><stop
         style="stop-color:#8381c5;stop-opacity:1;"
         offset="0"
         id="stop2" /><stop
         style="stop-color:#943fc1;stop-opacity:0.99215686;"
         offset="1"
         id="stop1" /></linearGradient><rect
       x="515.21393"
       y="591.28583"
       width="82.189529"
       height="20.746872"
       id="rect1" /><linearGradient
       id="swatch7"><stop
         style="stop-color:#000000;stop-opacity:1;"
         offset="0"
         id="stop7" /></linearGradient><linearGradient
       id="linearGradient4292"><stop
         id="stop4294"
         offset="0"
         style="stop-color:#411f5d;stop-opacity:1" /><stop
         id="stop4296"
         offset="1"
         style="stop-color:#5b2a85;stop-opacity:1" /></linearGradient><linearGradient
       id="linearGradient4284"><stop
         offset="0"
         style="stop-color:#8381c5;stop-opacity:1"
         id="stop4286" /><stop
         id="stop4290"
         style="stop-color:#7e55b3;stop-opacity:0.99607843"
         offset="0.56639391" /><stop
         offset="1"
         style="stop-color:#a52ecb;stop-opacity:0.99215686"
         id="stop4288" /></linearGradient><linearGradient
       y2="300.73987"
       x2="236.61363"
       y1="-161.8512"
       x1="-122.20192"
       spreadMethod="pad"
       gradientTransform="matrix(0.08192422,0,0,0.07764193,223.12164,515.26127)"
       gradientUnits="userSpaceOnUse"
       id="linearGradient4245"
       xlink:href="#linearGradient4284" /><linearGradient
       y2="66.018341"
       x2="173.94518"
       y1="396.6066"
       x1="447.80933"
       gradientTransform="matrix(0.09251715,0,0,0.09251715,200.34291,492.03412)"
       gradientUnits="userSpaceOnUse"
       id="linearGradient4247"
       xlink:href="#linearGradient4292" /><linearGradient
       xlink:href="#linearGradient1"
       id="linearGradient2"
       x1="65.512505"
       y1="119.42089"
       x2="129.27672"
       y2="119.42089"
       gradientUnits="userSpaceOnUse" /><rect
       x="272.34009"
       y="544.68018"
       width="51.533951"
       height="22.193455"
       id="rect2-7" /></defs><g
     id="layer1"
     transform="translate(-65.512506,-72.151816)"><path
       style="fill:#ffffff;fill-rule:evenodd;stroke-width:0.531971;paint-order:fill markers stroke"
       d="m 365.58567,276.30284 c -17.2112,-0.008 -95.94986,1.73989 -114.86315,18.8268 -3.34418,60.07997 0.35292,154.64109 -0.4201,231.38058 -1.58691,9.27765 236.05212,11.7724 235.6201,-0.21423 -1.2771,-42.13618 -0.82388,-208.17082 -2.86061,-231.90756 -34.2709,-19.37121 -77.33199,-17.96847 -117.47624,-18.08559 z"
       id="BG"
       transform="scale(0.26458333)" /><path
       style="fill:url(#linearGradient2)"
       d="m 90.647926,166.55559 c -3.55237,-0.14418 -10.8821,-0.89043 -13.87562,-1.41268 -5.63961,-0.98389 -9.66725,-2.46449 -10.71792,-3.94003 -0.54051,-0.75908 -0.54188,-0.86434 -0.54188,-41.77642 V 78.411047 l 0.64002,-0.76062 c 2.23129,-2.65174 10.14035,-4.361087 24.26945,-5.245247 6.85526,-0.428984 11.403474,-0.331204 20.069704,0.4315 10.06037,0.88539 17.08105,2.924587 18.44531,5.357547 0.2481,0.44245 0.32349,9.87164 0.33073,41.364773 l 0.009,40.79168 -0.69592,0.82706 c -3.16025,3.75574 -19.79492,6.11406 -37.933244,5.37785 z m -22.65036,-28.26217 c 1.40236,-0.58594 6.31854,-1.37111 11.85624,-1.89358 6.04901,-0.5707 27.615824,-0.66081 33.283704,-0.13906 7.35031,0.67663 12.20228,1.45683 14.35365,2.30807 0.43931,0.17383 0.46302,-1.33934 0.46302,-29.55185 0,-33.383983 0.19558,-30.401783 -2.06894,-31.547343 -6.93465,-3.508067 -27.523894,-5.025297 -43.350284,-3.19451 -7.81263,0.90376 -13.36416,2.40078 -15.10422,4.07298 l -0.59531,0.5721 v 29.887613 c 0,16.43818 0.045,29.88761 0.1,29.88761 0.055,0 0.53296,-0.18092 1.06216,-0.40203 z"
       id="path1" /><text
       xml:space="preserve"
       transform="matrix(0.26458333,0,0,0.26458333,-69.24933,-25.475871)"
       id="text1"
       style="font-style:italic;font-weight:600;font-size:13.3333px;font-family:'Fira Sans';-inkscape-font-specification:'Fira Sans Semi-Bold Italic';text-align:center;white-space:pre;shape-inside:url(#rect1);display:inline;fill:#ffffff;fill-rule:evenodd;paint-order:fill markers stroke"><tspan
         x="519.72968"
         y="603.34068"
         id="tspan2"><tspan
           style="font-style:normal;font-weight:normal;-inkscape-font-specification:'Fira Sans';fill:#000000"
           id="tspan1">Powered by:</tspan></tspan></text><g
       id="emacs_logo"
       transform="matrix(0.97554504,0,0,0.97554504,-662.83389,81.846275)"
       style="display:inline"><path
         d="m 245.83076,515.88126 c 0,12.19324 -9.78462,22.07781 -21.85454,22.07781 -12.06993,0 -21.85455,-9.88457 -21.85455,-22.07781 0,-12.19324 9.78462,-22.07781 21.85455,-22.07781 12.06992,0 21.85454,9.88457 21.85454,22.07781 z"
         id="path4235"
         style="display:inline;opacity:1;fill:url(#linearGradient4245);fill-opacity:1;stroke:url(#linearGradient4247);stroke-width:1.25045;stroke-miterlimit:4;stroke-dasharray:none;stroke-opacity:1"
         transform="translate(554.03605,-491.79739)" /><path
         d="m 770.50076,39.591616 c 0,0 1.85048,0.130907 4.23105,-0.0789 0.96407,-0.08497 4.62438,-0.444495 7.36096,-1.044646 0,0 3.33655,-0.714065 5.12157,-1.371877 1.86774,-0.688298 2.88409,-1.272472 3.34156,-2.100227 -0.0199,-0.169601 0.14085,-0.771036 -0.72047,-1.132302 -2.20206,-0.923624 -4.75594,-0.75656 -9.80942,-0.863704 -5.60411,-0.192554 -7.46837,-1.130598 -8.46146,-1.886099 -0.9523,-0.766424 -0.47344,-2.8868 3.60696,-4.75453 2.05541,-0.994592 10.11286,-2.830029 10.11286,-2.830029 -2.71361,-1.341305 -7.77362,-3.699275 -8.81376,-4.208459 -0.91226,-0.446577 -2.37216,-1.118996 -2.68861,-1.932533 -0.35879,-0.781021 0.84734,-1.453805 1.52108,-1.646471 2.16982,-0.625877 5.23295,-1.014879 8.02076,-1.058552 1.4013,-0.02195 1.62875,-0.112112 1.62875,-0.112112 1.93353,-0.320734 3.20639,-1.643601 2.67606,-3.738634 -0.47609,-2.1384801 -2.98703,-3.3950292 -5.37317,-2.9600254 -2.24702,0.4096462 -7.66292,1.982819 -7.66292,1.982819 6.69446,-0.05794 7.81493,0.053792 8.31535,0.7534464 0.29553,0.413195 -0.13429,0.979751 -1.91967,1.271343 -1.94372,0.317452 -5.98418,0.699749 -5.98418,0.699749 -3.87608,0.230193 -6.60639,0.2456 -7.42528,1.979357 -0.53499,1.132683 0.57051,2.134059 1.05504,2.760871 2.04757,2.277099 5.00515,3.5052 6.90889,4.409581 0.7163,0.340278 2.81799,0.982882 2.81799,0.982882 -6.17608,-0.339689 -10.63127,1.556766 -13.24466,3.740271 -2.95582,2.733994 -1.64825,5.992831 4.40741,7.999387 3.57673,1.18515 5.35055,1.742527 10.68577,1.262093 3.1425,-0.169381 3.63788,-0.06858 3.66922,0.189273 0.0441,0.36304 -3.49042,1.264843 -4.45538,1.543182 -2.45487,0.708099 -8.89009,2.13791 -8.9223,2.144846 z"
         id="path4237"
         style="display:inline;fill:#ffffff;fill-opacity:1;fill-rule:evenodd;stroke:#000000;stroke-width:0;stroke-linecap:butt;stroke-linejoin:miter;stroke-miterlimit:4;stroke-dasharray:none;stroke-opacity:1" /></g><text
       xml:space="preserve"
       transform="matrix(0.26458333,0,0,0.26458333,0.29857725,-3.0852983)"
       id="text2"
       style="font-style:normal;font-variant:normal;font-weight:normal;font-stretch:normal;font-size:60px;font-family:Arial;-inkscape-font-specification:Arial;text-align:center;white-space:pre;shape-inside:url(#rect2);display:inline;fill:#ffffff;fill-rule:evenodd;paint-order:fill markers stroke"><tspan
         x="281.40876"
         y="598.92969"
         id="tspan4"><tspan
           style="font-weight:500;font-family:'Fira Sans';-inkscape-font-specification:'Fira Sans Medium'"
           id="tspan3">Emacs</tspan></tspan></text><text
       xml:space="preserve"
       transform="matrix(0.26458333,0,0,0.26458333,-0.02557778,-4.3769062)"
       id="text2-1"
       style="font-style:normal;font-variant:normal;font-weight:normal;font-stretch:normal;font-size:16px;font-family:Arial;-inkscape-font-specification:Arial;text-align:center;white-space:pre;shape-inside:url(#rect2-7);display:inline;fill:#ffffff;fill-rule:evenodd;paint-order:fill markers stroke"><tspan
         x="280.33008"
         y="559.09176"
         id="tspan5">GNU</tspan></text></g><metadata
     id="metadata1"><rdf:RDF><cc:Work
         rdf:about=""><cc:license
           rdf:resource="https://www.gnu.org/licenses/gpl-3.0.en.html#license-text" /></cc:Work></rdf:RDF></metadata></svg>
